<svg xmlns="http://www.w3.org/2000/svg" viewBox="0 0 275.39 172.91"><defs><style>.cls-1{fill:#5fa970;}.cls-2{font-size:14.17px;font-family:EnzoOT-Bold, Enzo OT;font-weight:700;letter-spacing:-0.04em;}.cls-2,.cls-4{fill:#fff;}.cls-3{letter-spacing:-0.05em;}</style></defs><title>アセット 1</title><g id="レイヤー_2" data-name="レイヤー 2"><g id="名刺表"><rect id="背面" class="cls-1" width="275.39" height="172.91"/><text class="cls-2" transform="translate(108.07 110.81)">Gem<tspan class="cls-3" x="28" y="0">c</tspan><tspan x="33.92" y="0">ook</tspan></text><path class="cls-4" d="M149,56.55a11.42,11.42,0,0,0-11.45,8.19,4.45,4.45,0,0,1,.54,2.15,4.59,4.59,0,0,1-.87,2.68c0,.28.09.55.15.83.2.51.37,1,.53,1.58H138a6.83,6.83,0,0,1,6.35,4.31,6.83,6.83,0,0,1,0,5.94,6.83,6.83,0,0,1-5.34,4.23,18.14,18.14,0,0,1-2,4.12,8.68,8.68,0,0,0,.06-.9A6.83,6.83,0,0,0,136,85.88a7.09,7.09,0,0,0,1.68.21,6.84,6.84,0,0,0,0-13.68l-.43,0a6.73,6.73,0,0,0-.84-2.55,4.56,4.56,0,0,0,.17-5.78,4.57,4.57,0,0,0-2.67,3.24,6.85,6.85,0,0,0-7.46.37,4.55,4.55,0,0,0-2.53-3.61,4.6,4.6,0,0,0-1,2.81,4.54,4.54,0,0,0,1.4,3.28,6.6,6.6,0,0,0-.68,2.26c-.23,0-.47,0-.71,0a6.84,6.84,0,0,0,0,13.68,6.92,6.92,0,0,0,1.66-.21,6.85,6.85,0,0,0,1,8.77A2.3,2.3,0,0,0,124.21,96a2.28,2.28,0,0,0,3.87-.67c.73-.05,1.48-.09,2.23-.09s1.51,0,2.25.09a2.28,2.28,0,0,0,3.86.68A2.24,2.24,0,0,0,135,94.66a5,5,0,0,0,.45-.47,11.4,11.4,0,0,0,15.1-15,4.55,4.55,0,0,1-3.63-7.29,4.51,4.51,0,0,1,2.58-1.69h0a2.33,2.33,0,0,1,1.82.41,2.28,2.28,0,1,1-3.59,1.29,4.56,4.56,0,0,0,4.51,6.84c.32-.11.64-.24.95-.38l.55-.26q.6-.31,1.17-.69A11.4,11.4,0,0,0,149,56.55Z"/></g></g></svg>
